<svg width="11" height="11" viewBox="0 0 11 11" fill="none" xmlns="http://www.w3.org/2000/svg">
<path d="M4.94422 0.872598C5.09389 0.411943 5.7456 0.411943 5.89527 0.872598L6.78485 3.61042C6.85179 3.81644 7.04376 3.95592 7.26038 3.95592H10.1391C10.6235 3.95592 10.8248 4.57572 10.433 4.86042L8.10405 6.55249C7.92881 6.67982 7.85548 6.9055 7.92242 7.11151L8.81199 9.84934C8.96167 10.31 8.43443 10.6931 8.04257 10.4084L5.71364 8.71628C5.53839 8.58896 5.3011 8.58896 5.12585 8.71628L2.79692 10.4084C2.40506 10.6931 1.87782 10.31 2.0275 9.84934L2.91707 7.11151C2.98401 6.9055 2.91068 6.67982 2.73544 6.55249L0.406502 4.86042C0.0146453 4.57572 0.216034 3.95592 0.700395 3.95592H3.57912C3.79573 3.95592 3.98771 3.81644 4.05464 3.61042L4.94422 0.872598Z" fill="#6B7684"/>
</svg>
